<mxfile host="Electron" modified="2023-11-17T11:54:42.061Z" agent="Mozilla/5.0 (Macintosh; Intel Mac OS X 10_15_7) AppleWebKit/537.36 (KHTML, like Gecko) draw.io/21.6.5 Chrome/114.0.5735.243 Electron/25.3.1 Safari/537.36" etag="f5x0aGNKfBqSTT22Q5s7" version="21.6.5" type="device">
  <diagram name="Page-1" id="pptbvXrNijsv8_58Cd8q">
    <mxGraphModel dx="2074" dy="1214" grid="0" gridSize="10" guides="1" tooltips="1" connect="1" arrows="1" fold="1" page="1" pageScale="1" pageWidth="850" pageHeight="1100" math="0" shadow="0">
      <root>
        <mxCell id="0" />
        <mxCell id="1" parent="0" />
        <mxCell id="-CrN_SrDRRVTuFsDqrHh-148" value="" style="group;fillColor=#dae8fc;strokeColor=#6c8ebf;" parent="1" vertex="1" connectable="0">
          <mxGeometry x="400" y="1240" width="10" height="440" as="geometry" />
        </mxCell>
        <mxCell id="-CrN_SrDRRVTuFsDqrHh-149" value="" style="rounded=0;whiteSpace=wrap;html=1;fillColor=#dae8fc;strokeColor=#6c8ebf;" parent="-CrN_SrDRRVTuFsDqrHh-148" vertex="1">
          <mxGeometry width="10" height="440" as="geometry" />
        </mxCell>
        <mxCell id="-CrN_SrDRRVTuFsDqrHh-150" value="" style="endArrow=none;html=1;rounded=0;fillColor=#dae8fc;strokeColor=#6c8ebf;" parent="-CrN_SrDRRVTuFsDqrHh-148" edge="1">
          <mxGeometry width="50" height="50" relative="1" as="geometry">
            <mxPoint y="3" as="sourcePoint" />
            <mxPoint x="10" y="3" as="targetPoint" />
          </mxGeometry>
        </mxCell>
        <mxCell id="-CrN_SrDRRVTuFsDqrHh-65" style="edgeStyle=orthogonalEdgeStyle;rounded=0;orthogonalLoop=1;jettySize=auto;html=1;exitX=0;exitY=0.25;exitDx=0;exitDy=0;entryX=0.5;entryY=0;entryDx=0;entryDy=0;fillColor=#d5e8d4;strokeColor=#82b366;" parent="1" source="-CrN_SrDRRVTuFsDqrHh-51" target="-CrN_SrDRRVTuFsDqrHh-60" edge="1">
          <mxGeometry relative="1" as="geometry">
            <Array as="points">
              <mxPoint x="300" y="1380" />
              <mxPoint x="300" y="1294" />
              <mxPoint x="145" y="1294" />
              <mxPoint x="145" y="1323" />
            </Array>
          </mxGeometry>
        </mxCell>
        <mxCell id="-CrN_SrDRRVTuFsDqrHh-33" value="" style="group;dashed=1;dashPattern=8 8;" parent="1" vertex="1" connectable="0">
          <mxGeometry x="40" y="40" width="360" height="120" as="geometry" />
        </mxCell>
        <mxCell id="-CrN_SrDRRVTuFsDqrHh-31" value="" style="rounded=1;whiteSpace=wrap;html=1;dashed=1;dashPattern=8 8;" parent="-CrN_SrDRRVTuFsDqrHh-33" vertex="1">
          <mxGeometry width="360" height="120" as="geometry" />
        </mxCell>
        <mxCell id="-CrN_SrDRRVTuFsDqrHh-32" value="AP" style="text;html=1;strokeColor=none;fillColor=none;align=center;verticalAlign=middle;whiteSpace=wrap;rounded=0;" parent="-CrN_SrDRRVTuFsDqrHh-33" vertex="1">
          <mxGeometry width="60" height="30" as="geometry" />
        </mxCell>
        <mxCell id="-CrN_SrDRRVTuFsDqrHh-28" value="" style="group;dashed=1;dashPattern=8 8;" parent="1" vertex="1" connectable="0">
          <mxGeometry x="40" y="160" width="360" height="240" as="geometry" />
        </mxCell>
        <mxCell id="-CrN_SrDRRVTuFsDqrHh-26" value="" style="rounded=1;whiteSpace=wrap;html=1;dashed=1;dashPattern=8 8;" parent="-CrN_SrDRRVTuFsDqrHh-28" vertex="1">
          <mxGeometry width="360" height="240" as="geometry" />
        </mxCell>
        <mxCell id="-CrN_SrDRRVTuFsDqrHh-27" value="PS" style="text;html=1;strokeColor=none;fillColor=none;align=center;verticalAlign=middle;whiteSpace=wrap;rounded=0;" parent="-CrN_SrDRRVTuFsDqrHh-28" vertex="1">
          <mxGeometry x="10" y="10" width="60" height="30" as="geometry" />
        </mxCell>
        <mxCell id="-CrN_SrDRRVTuFsDqrHh-41" value="" style="group" parent="-CrN_SrDRRVTuFsDqrHh-28" vertex="1" connectable="0">
          <mxGeometry x="105" y="30" width="150" height="180" as="geometry" />
        </mxCell>
        <mxCell id="-CrN_SrDRRVTuFsDqrHh-24" value="" style="group;" parent="-CrN_SrDRRVTuFsDqrHh-41" vertex="1" connectable="0">
          <mxGeometry width="150" height="90" as="geometry" />
        </mxCell>
        <mxCell id="-CrN_SrDRRVTuFsDqrHh-17" value="&lt;font size=&quot;1&quot; style=&quot;&quot;&gt;&lt;span style=&quot;font-size: 12px;&quot;&gt;CPU&lt;/span&gt;&lt;/font&gt;" style="rounded=0;whiteSpace=wrap;html=1;fillColor=#dae8fc;strokeColor=#6c8ebf;" parent="-CrN_SrDRRVTuFsDqrHh-24" vertex="1">
          <mxGeometry width="120" height="60" as="geometry" />
        </mxCell>
        <mxCell id="-CrN_SrDRRVTuFsDqrHh-18" value="&lt;font size=&quot;1&quot; style=&quot;&quot;&gt;&lt;span style=&quot;font-size: 12px;&quot;&gt;CPU&lt;/span&gt;&lt;/font&gt;" style="rounded=0;whiteSpace=wrap;html=1;fillColor=#dae8fc;strokeColor=#6c8ebf;" parent="-CrN_SrDRRVTuFsDqrHh-24" vertex="1">
          <mxGeometry x="10" y="10" width="120" height="60" as="geometry" />
        </mxCell>
        <mxCell id="-CrN_SrDRRVTuFsDqrHh-19" value="&lt;font size=&quot;1&quot; style=&quot;&quot;&gt;&lt;span style=&quot;font-size: 12px;&quot;&gt;CPU&lt;/span&gt;&lt;/font&gt;" style="rounded=0;whiteSpace=wrap;html=1;fillColor=#dae8fc;strokeColor=#6c8ebf;" parent="-CrN_SrDRRVTuFsDqrHh-24" vertex="1">
          <mxGeometry x="20" y="20" width="120" height="60" as="geometry" />
        </mxCell>
        <mxCell id="-CrN_SrDRRVTuFsDqrHh-20" value="&lt;font size=&quot;1&quot; style=&quot;&quot;&gt;&lt;span style=&quot;font-size: 12px;&quot;&gt;CPUx4&lt;/span&gt;&lt;/font&gt;" style="rounded=0;whiteSpace=wrap;html=1;fillColor=#dae8fc;strokeColor=#6c8ebf;" parent="-CrN_SrDRRVTuFsDqrHh-24" vertex="1">
          <mxGeometry x="30" y="30" width="120" height="60" as="geometry" />
        </mxCell>
        <mxCell id="-CrN_SrDRRVTuFsDqrHh-25" value="" style="group" parent="-CrN_SrDRRVTuFsDqrHh-41" vertex="1" connectable="0">
          <mxGeometry x="30" y="120" width="100" height="60" as="geometry" />
        </mxCell>
        <mxCell id="-CrN_SrDRRVTuFsDqrHh-21" value="S&lt;br&gt;E&lt;br&gt;C" style="rounded=0;whiteSpace=wrap;html=1;fillColor=#fff2cc;strokeColor=#d6b656;" parent="-CrN_SrDRRVTuFsDqrHh-25" vertex="1">
          <mxGeometry width="20" height="60" as="geometry" />
        </mxCell>
        <mxCell id="-CrN_SrDRRVTuFsDqrHh-22" value="R&lt;br&gt;O&lt;br&gt;H&lt;br&gt;C" style="rounded=0;whiteSpace=wrap;html=1;fillColor=#fff2cc;strokeColor=#d6b656;" parent="-CrN_SrDRRVTuFsDqrHh-25" vertex="1">
          <mxGeometry x="40" width="20" height="60" as="geometry" />
        </mxCell>
        <mxCell id="-CrN_SrDRRVTuFsDqrHh-23" value="A&lt;br&gt;C&lt;br&gt;C" style="rounded=0;whiteSpace=wrap;html=1;fillColor=#fff2cc;strokeColor=#d6b656;" parent="-CrN_SrDRRVTuFsDqrHh-25" vertex="1">
          <mxGeometry x="80" width="20" height="60" as="geometry" />
        </mxCell>
        <mxCell id="-CrN_SrDRRVTuFsDqrHh-29" value="&lt;font size=&quot;1&quot; style=&quot;&quot;&gt;&lt;span style=&quot;font-size: 12px;&quot;&gt;CPU&lt;/span&gt;&lt;/font&gt;" style="rounded=0;whiteSpace=wrap;html=1;fillColor=#dae8fc;strokeColor=#6c8ebf;" parent="1" vertex="1">
          <mxGeometry x="150" y="70" width="120" height="60" as="geometry" />
        </mxCell>
        <mxCell id="-CrN_SrDRRVTuFsDqrHh-30" value="&lt;font size=&quot;1&quot; style=&quot;&quot;&gt;&lt;span style=&quot;font-size: 12px;&quot;&gt;CPUx2&lt;/span&gt;&lt;/font&gt;" style="rounded=0;whiteSpace=wrap;html=1;fillColor=#dae8fc;strokeColor=#6c8ebf;" parent="1" vertex="1">
          <mxGeometry x="160" y="80" width="120" height="60" as="geometry" />
        </mxCell>
        <mxCell id="-CrN_SrDRRVTuFsDqrHh-44" value="" style="group" parent="1" vertex="1" connectable="0">
          <mxGeometry x="40" y="400" width="360" height="240" as="geometry" />
        </mxCell>
        <mxCell id="-CrN_SrDRRVTuFsDqrHh-14" value="" style="rounded=1;whiteSpace=wrap;html=1;dashed=1;dashPattern=8 8;" parent="-CrN_SrDRRVTuFsDqrHh-44" vertex="1">
          <mxGeometry width="360" height="240" as="geometry" />
        </mxCell>
        <mxCell id="-CrN_SrDRRVTuFsDqrHh-1" value="O&lt;br&gt;T&lt;br&gt;X" style="rounded=0;whiteSpace=wrap;html=1;fillColor=#fff2cc;strokeColor=#d6b656;" parent="-CrN_SrDRRVTuFsDqrHh-44" vertex="1">
          <mxGeometry x="30" y="160" width="20" height="60" as="geometry" />
        </mxCell>
        <mxCell id="-CrN_SrDRRVTuFsDqrHh-2" value="I&lt;br&gt;T&lt;br&gt;X" style="rounded=0;whiteSpace=wrap;html=1;fillColor=#fff2cc;strokeColor=#d6b656;" parent="-CrN_SrDRRVTuFsDqrHh-44" vertex="1">
          <mxGeometry x="70" y="160" width="20" height="60" as="geometry" />
        </mxCell>
        <mxCell id="-CrN_SrDRRVTuFsDqrHh-3" value="I&lt;br&gt;F&lt;br&gt;F&lt;br&gt;T" style="rounded=0;whiteSpace=wrap;html=1;fillColor=#fff2cc;strokeColor=#d6b656;" parent="-CrN_SrDRRVTuFsDqrHh-44" vertex="1">
          <mxGeometry x="110" y="160" width="20" height="60" as="geometry" />
        </mxCell>
        <mxCell id="-CrN_SrDRRVTuFsDqrHh-15" value="PHY" style="text;html=1;strokeColor=none;fillColor=none;align=center;verticalAlign=middle;whiteSpace=wrap;rounded=0;" parent="-CrN_SrDRRVTuFsDqrHh-44" vertex="1">
          <mxGeometry x="20" width="60" height="30" as="geometry" />
        </mxCell>
        <mxCell id="-CrN_SrDRRVTuFsDqrHh-11" value="DSP" style="rounded=0;whiteSpace=wrap;html=1;fillColor=#d5e8d4;strokeColor=#82b366;" parent="-CrN_SrDRRVTuFsDqrHh-44" vertex="1">
          <mxGeometry x="210" y="40" width="120" height="60" as="geometry" />
        </mxCell>
        <mxCell id="-CrN_SrDRRVTuFsDqrHh-12" value="DSP" style="rounded=0;whiteSpace=wrap;html=1;fillColor=#d5e8d4;strokeColor=#82b366;" parent="-CrN_SrDRRVTuFsDqrHh-44" vertex="1">
          <mxGeometry x="220" y="50" width="120" height="60" as="geometry" />
        </mxCell>
        <mxCell id="-CrN_SrDRRVTuFsDqrHh-13" value="DSPx3" style="rounded=0;whiteSpace=wrap;html=1;fillColor=#d5e8d4;strokeColor=#82b366;" parent="-CrN_SrDRRVTuFsDqrHh-44" vertex="1">
          <mxGeometry x="230" y="60" width="120" height="60" as="geometry" />
        </mxCell>
        <mxCell id="-CrN_SrDRRVTuFsDqrHh-4" value="F&lt;br&gt;F&lt;br&gt;T" style="rounded=0;whiteSpace=wrap;html=1;fillColor=#fff2cc;strokeColor=#d6b656;" parent="-CrN_SrDRRVTuFsDqrHh-44" vertex="1">
          <mxGeometry x="210" y="160" width="20" height="60" as="geometry" />
        </mxCell>
        <mxCell id="-CrN_SrDRRVTuFsDqrHh-5" value="D&lt;br&gt;F&lt;br&gt;T" style="rounded=0;whiteSpace=wrap;html=1;fillColor=#fff2cc;strokeColor=#d6b656;" parent="-CrN_SrDRRVTuFsDqrHh-44" vertex="1">
          <mxGeometry x="250" y="160" width="20" height="60" as="geometry" />
        </mxCell>
        <mxCell id="-CrN_SrDRRVTuFsDqrHh-6" value="I&lt;br&gt;R&lt;br&gt;X" style="rounded=0;whiteSpace=wrap;html=1;fillColor=#fff2cc;strokeColor=#d6b656;" parent="-CrN_SrDRRVTuFsDqrHh-44" vertex="1">
          <mxGeometry x="290" y="160" width="20" height="60" as="geometry" />
        </mxCell>
        <mxCell id="-CrN_SrDRRVTuFsDqrHh-7" value="O&lt;br&gt;R&lt;br&gt;X" style="rounded=0;whiteSpace=wrap;html=1;fillColor=#fff2cc;strokeColor=#d6b656;" parent="-CrN_SrDRRVTuFsDqrHh-44" vertex="1">
          <mxGeometry x="330" y="160" width="20" height="60" as="geometry" />
        </mxCell>
        <mxCell id="-CrN_SrDRRVTuFsDqrHh-10" value="&lt;font style=&quot;font-size: 20px;&quot;&gt;&lt;b&gt;&lt;i&gt;&lt;u&gt;CPU&lt;/u&gt;&lt;/i&gt;&lt;/b&gt;&lt;/font&gt;" style="rounded=0;whiteSpace=wrap;html=1;fillColor=#f8cecc;strokeColor=#b85450;dashed=1;dashPattern=8 8;" parent="-CrN_SrDRRVTuFsDqrHh-44" vertex="1">
          <mxGeometry x="20" y="40" width="120" height="60" as="geometry" />
        </mxCell>
        <mxCell id="-CrN_SrDRRVTuFsDqrHh-37" value="" style="shape=flexArrow;endArrow=classic;html=1;rounded=0;endWidth=52.40816326530613;endSize=6.285714285714286;width=50.285714285714285;fillColor=#f5f5f5;strokeColor=#666666;" parent="-CrN_SrDRRVTuFsDqrHh-44" edge="1">
          <mxGeometry width="50" height="50" relative="1" as="geometry">
            <mxPoint x="79.99999999999999" y="150" as="sourcePoint" />
            <mxPoint x="79.99999999999999" y="110" as="targetPoint" />
          </mxGeometry>
        </mxCell>
        <mxCell id="-CrN_SrDRRVTuFsDqrHh-40" value="interrupt" style="edgeLabel;html=1;align=center;verticalAlign=middle;resizable=0;points=[];" parent="-CrN_SrDRRVTuFsDqrHh-37" vertex="1" connectable="0">
          <mxGeometry x="-0.0571" y="3" relative="1" as="geometry">
            <mxPoint as="offset" />
          </mxGeometry>
        </mxCell>
        <mxCell id="-CrN_SrDRRVTuFsDqrHh-45" value="" style="shape=flexArrow;endArrow=classic;html=1;rounded=0;endWidth=52.40816326530613;endSize=7.331428571428572;width=42.285714285714285;fillColor=#f5f5f5;strokeColor=#666666;" parent="-CrN_SrDRRVTuFsDqrHh-44" edge="1">
          <mxGeometry width="50" height="50" relative="1" as="geometry">
            <mxPoint x="158.5" y="81.20999999999998" as="sourcePoint" />
            <mxPoint x="201.5" y="81.20999999999998" as="targetPoint" />
          </mxGeometry>
        </mxCell>
        <mxCell id="-CrN_SrDRRVTuFsDqrHh-46" value="config" style="edgeLabel;html=1;align=center;verticalAlign=middle;resizable=0;points=[];" parent="-CrN_SrDRRVTuFsDqrHh-45" vertex="1" connectable="0">
          <mxGeometry x="-0.0571" y="3" relative="1" as="geometry">
            <mxPoint as="offset" />
          </mxGeometry>
        </mxCell>
        <mxCell id="-CrN_SrDRRVTuFsDqrHh-50" value="" style="group;fillColor=#fff2cc;strokeColor=#d6b656;" parent="1" vertex="1" connectable="0">
          <mxGeometry x="216" y="1320" width="64" height="160" as="geometry" />
        </mxCell>
        <mxCell id="-CrN_SrDRRVTuFsDqrHh-48" value="2 bank&lt;br&gt;ITCM" style="rounded=0;whiteSpace=wrap;html=1;fillColor=#fff2cc;strokeColor=#d6b656;" parent="-CrN_SrDRRVTuFsDqrHh-50" vertex="1">
          <mxGeometry width="64" height="160" as="geometry" />
        </mxCell>
        <mxCell id="-CrN_SrDRRVTuFsDqrHh-127" value="" style="endArrow=none;html=1;rounded=0;fillColor=#fff2cc;strokeColor=#d6b656;" parent="-CrN_SrDRRVTuFsDqrHh-50" edge="1">
          <mxGeometry width="50" height="50" relative="1" as="geometry">
            <mxPoint y="4" as="sourcePoint" />
            <mxPoint x="64" y="4" as="targetPoint" />
          </mxGeometry>
        </mxCell>
        <mxCell id="-CrN_SrDRRVTuFsDqrHh-56" style="edgeStyle=orthogonalEdgeStyle;rounded=0;orthogonalLoop=1;jettySize=auto;html=1;exitX=0;exitY=0.25;exitDx=0;exitDy=0;entryX=1.011;entryY=0.377;entryDx=0;entryDy=0;entryPerimeter=0;fillColor=#d5e8d4;strokeColor=#82b366;" parent="1" source="-CrN_SrDRRVTuFsDqrHh-51" target="-CrN_SrDRRVTuFsDqrHh-48" edge="1">
          <mxGeometry relative="1" as="geometry" />
        </mxCell>
        <mxCell id="-CrN_SrDRRVTuFsDqrHh-59" value="&lt;font color=&quot;#97d077&quot;&gt;full&lt;/font&gt;" style="edgeLabel;html=1;align=center;verticalAlign=middle;resizable=0;points=[];" parent="-CrN_SrDRRVTuFsDqrHh-56" vertex="1" connectable="0">
          <mxGeometry x="0.0746" relative="1" as="geometry">
            <mxPoint as="offset" />
          </mxGeometry>
        </mxCell>
        <mxCell id="-CrN_SrDRRVTuFsDqrHh-57" style="edgeStyle=orthogonalEdgeStyle;rounded=0;orthogonalLoop=1;jettySize=auto;html=1;exitX=1;exitY=0.5;exitDx=0;exitDy=0;entryX=0;entryY=0.5;entryDx=0;entryDy=0;" parent="1" source="-CrN_SrDRRVTuFsDqrHh-48" target="-CrN_SrDRRVTuFsDqrHh-51" edge="1">
          <mxGeometry relative="1" as="geometry" />
        </mxCell>
        <mxCell id="-CrN_SrDRRVTuFsDqrHh-58" value="data" style="edgeLabel;html=1;align=center;verticalAlign=middle;resizable=0;points=[];" parent="-CrN_SrDRRVTuFsDqrHh-57" vertex="1" connectable="0">
          <mxGeometry x="-0.0964" relative="1" as="geometry">
            <mxPoint as="offset" />
          </mxGeometry>
        </mxCell>
        <mxCell id="-CrN_SrDRRVTuFsDqrHh-61" style="edgeStyle=orthogonalEdgeStyle;rounded=0;orthogonalLoop=1;jettySize=auto;html=1;exitX=1;exitY=0.5;exitDx=0;exitDy=0;entryX=-0.01;entryY=0.515;entryDx=0;entryDy=0;entryPerimeter=0;" parent="1" source="-CrN_SrDRRVTuFsDqrHh-60" target="-CrN_SrDRRVTuFsDqrHh-48" edge="1">
          <mxGeometry relative="1" as="geometry" />
        </mxCell>
        <mxCell id="-CrN_SrDRRVTuFsDqrHh-62" value="addr" style="edgeLabel;html=1;align=center;verticalAlign=middle;resizable=0;points=[];" parent="-CrN_SrDRRVTuFsDqrHh-61" vertex="1" connectable="0">
          <mxGeometry x="-0.0629" relative="1" as="geometry">
            <mxPoint as="offset" />
          </mxGeometry>
        </mxCell>
        <mxCell id="-CrN_SrDRRVTuFsDqrHh-60" value="" style="rounded=0;whiteSpace=wrap;html=1;" parent="1" vertex="1">
          <mxGeometry x="143" y="1323" width="5" height="160" as="geometry" />
        </mxCell>
        <mxCell id="-CrN_SrDRRVTuFsDqrHh-63" style="edgeStyle=orthogonalEdgeStyle;rounded=0;orthogonalLoop=1;jettySize=auto;html=1;exitX=1;exitY=0.5;exitDx=0;exitDy=0;entryX=0;entryY=0.25;entryDx=0;entryDy=0;" parent="1" source="-CrN_SrDRRVTuFsDqrHh-60" target="-CrN_SrDRRVTuFsDqrHh-60" edge="1">
          <mxGeometry relative="1" as="geometry">
            <Array as="points">
              <mxPoint x="168" y="1403" />
              <mxPoint x="168" y="1307" />
              <mxPoint x="123" y="1307" />
              <mxPoint x="123" y="1363" />
            </Array>
          </mxGeometry>
        </mxCell>
        <mxCell id="-CrN_SrDRRVTuFsDqrHh-64" value="+4" style="edgeLabel;html=1;align=center;verticalAlign=middle;resizable=0;points=[];" parent="-CrN_SrDRRVTuFsDqrHh-63" vertex="1" connectable="0">
          <mxGeometry x="0.156" y="-1" relative="1" as="geometry">
            <mxPoint x="-15" as="offset" />
          </mxGeometry>
        </mxCell>
        <mxCell id="-CrN_SrDRRVTuFsDqrHh-81" style="edgeStyle=orthogonalEdgeStyle;rounded=0;orthogonalLoop=1;jettySize=auto;html=1;exitX=1;exitY=0.5;exitDx=0;exitDy=0;entryX=0;entryY=0.5;entryDx=0;entryDy=0;fillColor=#e1d5e7;strokeColor=#9673a6;" parent="1" source="-CrN_SrDRRVTuFsDqrHh-68" target="-CrN_SrDRRVTuFsDqrHh-74" edge="1">
          <mxGeometry relative="1" as="geometry" />
        </mxCell>
        <mxCell id="-CrN_SrDRRVTuFsDqrHh-92" style="edgeStyle=orthogonalEdgeStyle;rounded=0;orthogonalLoop=1;jettySize=auto;html=1;exitX=1;exitY=0.75;exitDx=0;exitDy=0;entryX=-0.243;entryY=0.562;entryDx=0;entryDy=0;entryPerimeter=0;fillColor=#d5e8d4;strokeColor=#82b366;" parent="1" source="-CrN_SrDRRVTuFsDqrHh-68" target="-CrN_SrDRRVTuFsDqrHh-85" edge="1">
          <mxGeometry relative="1" as="geometry">
            <Array as="points">
              <mxPoint x="670" y="1420" />
              <mxPoint x="670" y="1487" />
            </Array>
          </mxGeometry>
        </mxCell>
        <mxCell id="-CrN_SrDRRVTuFsDqrHh-125" value="&lt;font color=&quot;#97d077&quot;&gt;operation&lt;/font&gt;" style="edgeLabel;html=1;align=center;verticalAlign=middle;resizable=0;points=[];" parent="-CrN_SrDRRVTuFsDqrHh-92" vertex="1" connectable="0">
          <mxGeometry x="0.1341" y="1" relative="1" as="geometry">
            <mxPoint as="offset" />
          </mxGeometry>
        </mxCell>
        <mxCell id="-CrN_SrDRRVTuFsDqrHh-68" value="Decoder" style="rounded=0;whiteSpace=wrap;html=1;fillColor=#e1d5e7;strokeColor=#9673a6;" parent="1" vertex="1">
          <mxGeometry x="570" y="1360" width="80" height="80" as="geometry" />
        </mxCell>
        <mxCell id="-CrN_SrDRRVTuFsDqrHh-69" value="Extending&lt;br&gt;Unit" style="rounded=0;whiteSpace=wrap;html=1;fillColor=#e1d5e7;strokeColor=#9673a6;" parent="1" vertex="1">
          <mxGeometry x="570" y="1540" width="80" height="40" as="geometry" />
        </mxCell>
        <mxCell id="-CrN_SrDRRVTuFsDqrHh-115" style="edgeStyle=orthogonalEdgeStyle;rounded=0;orthogonalLoop=1;jettySize=auto;html=1;exitX=1;exitY=0.5;exitDx=0;exitDy=0;entryX=1;entryY=0.25;entryDx=0;entryDy=0;" parent="1" source="-CrN_SrDRRVTuFsDqrHh-70" target="-CrN_SrDRRVTuFsDqrHh-114" edge="1">
          <mxGeometry relative="1" as="geometry" />
        </mxCell>
        <mxCell id="-CrN_SrDRRVTuFsDqrHh-123" value="branch prediction" style="edgeLabel;html=1;align=center;verticalAlign=middle;resizable=0;points=[];" parent="-CrN_SrDRRVTuFsDqrHh-115" vertex="1" connectable="0">
          <mxGeometry x="0.5349" y="-1" relative="1" as="geometry">
            <mxPoint as="offset" />
          </mxGeometry>
        </mxCell>
        <mxCell id="-CrN_SrDRRVTuFsDqrHh-70" value="&lt;font style=&quot;font-size: 11px;&quot;&gt;Static&lt;br&gt;Branch&lt;br&gt;Predictor&lt;/font&gt;" style="rounded=0;whiteSpace=wrap;html=1;fillColor=#e1d5e7;strokeColor=#9673a6;" parent="1" vertex="1">
          <mxGeometry x="570" y="1480" width="80" height="40" as="geometry" />
        </mxCell>
        <mxCell id="-CrN_SrDRRVTuFsDqrHh-75" style="edgeStyle=orthogonalEdgeStyle;rounded=0;orthogonalLoop=1;jettySize=auto;html=1;exitX=1;exitY=0.5;exitDx=0;exitDy=0;entryX=0;entryY=0.75;entryDx=0;entryDy=0;strokeColor=#9673a6;fillColor=#e1d5e7;" parent="1" source="-CrN_SrDRRVTuFsDqrHh-71" target="-CrN_SrDRRVTuFsDqrHh-68" edge="1">
          <mxGeometry relative="1" as="geometry" />
        </mxCell>
        <mxCell id="-CrN_SrDRRVTuFsDqrHh-78" style="edgeStyle=orthogonalEdgeStyle;rounded=0;orthogonalLoop=1;jettySize=auto;html=1;exitX=0;exitY=0.75;exitDx=0;exitDy=0;entryX=0.938;entryY=0.882;entryDx=0;entryDy=0;entryPerimeter=0;" parent="1" source="-CrN_SrDRRVTuFsDqrHh-71" target="-CrN_SrDRRVTuFsDqrHh-55" edge="1">
          <mxGeometry relative="1" as="geometry" />
        </mxCell>
        <mxCell id="-CrN_SrDRRVTuFsDqrHh-71" value="Compress&lt;br&gt;Decoder" style="rounded=0;whiteSpace=wrap;html=1;fillColor=#e1d5e7;strokeColor=#9673a6;" parent="1" vertex="1">
          <mxGeometry x="450" y="1400" width="80" height="40" as="geometry" />
        </mxCell>
        <mxCell id="-CrN_SrDRRVTuFsDqrHh-83" style="edgeStyle=orthogonalEdgeStyle;rounded=0;orthogonalLoop=1;jettySize=auto;html=1;exitX=1;exitY=0.5;exitDx=0;exitDy=0;entryX=0;entryY=0.5;entryDx=0;entryDy=0;" parent="1" source="-CrN_SrDRRVTuFsDqrHh-74" target="-CrN_SrDRRVTuFsDqrHh-82" edge="1">
          <mxGeometry relative="1" as="geometry" />
        </mxCell>
        <mxCell id="-CrN_SrDRRVTuFsDqrHh-76" style="edgeStyle=orthogonalEdgeStyle;rounded=0;orthogonalLoop=1;jettySize=auto;html=1;exitX=1;exitY=0.25;exitDx=0;exitDy=0;entryX=0;entryY=0.25;entryDx=0;entryDy=0;" parent="1" source="-CrN_SrDRRVTuFsDqrHh-55" target="-CrN_SrDRRVTuFsDqrHh-68" edge="1">
          <mxGeometry relative="1" as="geometry" />
        </mxCell>
        <mxCell id="-CrN_SrDRRVTuFsDqrHh-77" style="edgeStyle=orthogonalEdgeStyle;rounded=0;orthogonalLoop=1;jettySize=auto;html=1;exitX=1;exitY=0.25;exitDx=0;exitDy=0;entryX=0;entryY=0.5;entryDx=0;entryDy=0;" parent="1" source="-CrN_SrDRRVTuFsDqrHh-55" target="-CrN_SrDRRVTuFsDqrHh-71" edge="1">
          <mxGeometry relative="1" as="geometry" />
        </mxCell>
        <mxCell id="-CrN_SrDRRVTuFsDqrHh-79" style="edgeStyle=orthogonalEdgeStyle;rounded=0;orthogonalLoop=1;jettySize=auto;html=1;exitX=1;exitY=0.25;exitDx=0;exitDy=0;entryX=0;entryY=0.5;entryDx=0;entryDy=0;" parent="1" source="-CrN_SrDRRVTuFsDqrHh-55" target="-CrN_SrDRRVTuFsDqrHh-70" edge="1">
          <mxGeometry relative="1" as="geometry">
            <Array as="points">
              <mxPoint x="540" y="1380" />
              <mxPoint x="540" y="1500" />
            </Array>
          </mxGeometry>
        </mxCell>
        <mxCell id="-CrN_SrDRRVTuFsDqrHh-80" style="edgeStyle=orthogonalEdgeStyle;rounded=0;orthogonalLoop=1;jettySize=auto;html=1;exitX=1;exitY=0.25;exitDx=0;exitDy=0;entryX=0;entryY=0.5;entryDx=0;entryDy=0;" parent="1" source="-CrN_SrDRRVTuFsDqrHh-55" target="-CrN_SrDRRVTuFsDqrHh-69" edge="1">
          <mxGeometry relative="1" as="geometry">
            <Array as="points">
              <mxPoint x="540" y="1380" />
              <mxPoint x="540" y="1560" />
            </Array>
          </mxGeometry>
        </mxCell>
        <mxCell id="-CrN_SrDRRVTuFsDqrHh-87" style="edgeStyle=orthogonalEdgeStyle;rounded=0;orthogonalLoop=1;jettySize=auto;html=1;exitX=1;exitY=0.5;exitDx=0;exitDy=0;entryX=-0.014;entryY=0.364;entryDx=0;entryDy=0;entryPerimeter=0;" parent="1" source="-CrN_SrDRRVTuFsDqrHh-82" target="-CrN_SrDRRVTuFsDqrHh-85" edge="1">
          <mxGeometry relative="1" as="geometry" />
        </mxCell>
        <mxCell id="-CrN_SrDRRVTuFsDqrHh-151" value="rs1, rs2" style="edgeLabel;html=1;align=center;verticalAlign=middle;resizable=0;points=[];" parent="-CrN_SrDRRVTuFsDqrHh-87" vertex="1" connectable="0">
          <mxGeometry x="-0.2711" relative="1" as="geometry">
            <mxPoint as="offset" />
          </mxGeometry>
        </mxCell>
        <mxCell id="-CrN_SrDRRVTuFsDqrHh-82" value="" style="rounded=0;whiteSpace=wrap;html=1;" parent="1" vertex="1">
          <mxGeometry x="800" y="1320" width="5" height="160" as="geometry" />
        </mxCell>
        <mxCell id="-CrN_SrDRRVTuFsDqrHh-94" style="edgeStyle=orthogonalEdgeStyle;rounded=0;orthogonalLoop=1;jettySize=auto;html=1;exitX=1.186;exitY=0.562;exitDx=0;exitDy=0;entryX=0.002;entryY=0.974;entryDx=0;entryDy=0;entryPerimeter=0;exitPerimeter=0;" parent="1" source="-CrN_SrDRRVTuFsDqrHh-85" target="-CrN_SrDRRVTuFsDqrHh-91" edge="1">
          <mxGeometry relative="1" as="geometry" />
        </mxCell>
        <mxCell id="-CrN_SrDRRVTuFsDqrHh-111" style="edgeStyle=orthogonalEdgeStyle;rounded=0;orthogonalLoop=1;jettySize=auto;html=1;exitX=1.071;exitY=0.345;exitDx=0;exitDy=0;entryX=0;entryY=0.25;entryDx=0;entryDy=0;exitPerimeter=0;" parent="1" source="-CrN_SrDRRVTuFsDqrHh-90" target="-CrN_SrDRRVTuFsDqrHh-99" edge="1">
          <mxGeometry relative="1" as="geometry" />
        </mxCell>
        <mxCell id="-CrN_SrDRRVTuFsDqrHh-93" style="edgeStyle=orthogonalEdgeStyle;rounded=0;orthogonalLoop=1;jettySize=auto;html=1;exitX=0.023;exitY=0.319;exitDx=0;exitDy=0;entryX=1.014;entryY=0.367;entryDx=0;entryDy=0;entryPerimeter=0;exitPerimeter=0;startArrow=classic;startFill=1;endArrow=none;endFill=0;" parent="1" source="-CrN_SrDRRVTuFsDqrHh-91" target="-CrN_SrDRRVTuFsDqrHh-85" edge="1">
          <mxGeometry relative="1" as="geometry" />
        </mxCell>
        <mxCell id="-CrN_SrDRRVTuFsDqrHh-103" style="edgeStyle=orthogonalEdgeStyle;rounded=0;orthogonalLoop=1;jettySize=auto;html=1;exitX=1;exitY=0.25;exitDx=0;exitDy=0;entryX=0.214;entryY=0.347;entryDx=0;entryDy=0;entryPerimeter=0;" parent="1" source="-CrN_SrDRRVTuFsDqrHh-91" target="-CrN_SrDRRVTuFsDqrHh-97" edge="1">
          <mxGeometry relative="1" as="geometry" />
        </mxCell>
        <mxCell id="-CrN_SrDRRVTuFsDqrHh-106" value="result" style="edgeLabel;html=1;align=center;verticalAlign=middle;resizable=0;points=[];" parent="-CrN_SrDRRVTuFsDqrHh-103" vertex="1" connectable="0">
          <mxGeometry x="-0.1426" y="1" relative="1" as="geometry">
            <mxPoint x="9" as="offset" />
          </mxGeometry>
        </mxCell>
        <mxCell id="-CrN_SrDRRVTuFsDqrHh-107" style="edgeStyle=orthogonalEdgeStyle;rounded=0;orthogonalLoop=1;jettySize=auto;html=1;exitX=1;exitY=0.25;exitDx=0;exitDy=0;entryX=0;entryY=0.25;entryDx=0;entryDy=0;" parent="1" source="-CrN_SrDRRVTuFsDqrHh-91" target="-CrN_SrDRRVTuFsDqrHh-82" edge="1">
          <mxGeometry relative="1" as="geometry">
            <Array as="points">
              <mxPoint x="1040" y="1393" />
              <mxPoint x="1040" y="1230" />
              <mxPoint x="780" y="1230" />
              <mxPoint x="780" y="1360" />
            </Array>
          </mxGeometry>
        </mxCell>
        <mxCell id="-CrN_SrDRRVTuFsDqrHh-108" style="edgeStyle=orthogonalEdgeStyle;rounded=0;orthogonalLoop=1;jettySize=auto;html=1;exitX=1;exitY=0.75;exitDx=0;exitDy=0;entryX=-0.017;entryY=0.644;entryDx=0;entryDy=0;entryPerimeter=0;" parent="1" source="-CrN_SrDRRVTuFsDqrHh-91" target="-CrN_SrDRRVTuFsDqrHh-96" edge="1">
          <mxGeometry relative="1" as="geometry" />
        </mxCell>
        <mxCell id="-CrN_SrDRRVTuFsDqrHh-109" value="addr" style="edgeLabel;html=1;align=center;verticalAlign=middle;resizable=0;points=[];" parent="-CrN_SrDRRVTuFsDqrHh-108" vertex="1" connectable="0">
          <mxGeometry x="-0.2351" y="1" relative="1" as="geometry">
            <mxPoint as="offset" />
          </mxGeometry>
        </mxCell>
        <mxCell id="-CrN_SrDRRVTuFsDqrHh-116" style="edgeStyle=orthogonalEdgeStyle;rounded=0;orthogonalLoop=1;jettySize=auto;html=1;exitX=0.5;exitY=1;exitDx=0;exitDy=0;entryX=1;entryY=0.5;entryDx=0;entryDy=0;" parent="1" source="-CrN_SrDRRVTuFsDqrHh-91" target="-CrN_SrDRRVTuFsDqrHh-114" edge="1">
          <mxGeometry relative="1" as="geometry" />
        </mxCell>
        <mxCell id="-CrN_SrDRRVTuFsDqrHh-122" value="branch prediction wrong" style="edgeLabel;html=1;align=center;verticalAlign=middle;resizable=0;points=[];" parent="-CrN_SrDRRVTuFsDqrHh-116" vertex="1" connectable="0">
          <mxGeometry x="0.764" y="-2" relative="1" as="geometry">
            <mxPoint as="offset" />
          </mxGeometry>
        </mxCell>
        <mxCell id="-CrN_SrDRRVTuFsDqrHh-91" value="ALU" style="rounded=0;whiteSpace=wrap;html=1;fillColor=#d5e8d4;strokeColor=#82b366;" parent="1" vertex="1">
          <mxGeometry x="940" y="1360" width="80" height="130" as="geometry" />
        </mxCell>
        <mxCell id="-CrN_SrDRRVTuFsDqrHh-95" value="" style="group;fillColor=#ffe6cc;strokeColor=#d79b00;" parent="1" vertex="1" connectable="0">
          <mxGeometry x="1120" y="1400" width="90" height="90" as="geometry" />
        </mxCell>
        <mxCell id="-CrN_SrDRRVTuFsDqrHh-96" value="DTCM" style="rounded=0;whiteSpace=wrap;html=1;fillColor=#ffe6cc;strokeColor=#d79b00;" parent="-CrN_SrDRRVTuFsDqrHh-95" vertex="1">
          <mxGeometry width="90" height="90" as="geometry" />
        </mxCell>
        <mxCell id="-CrN_SrDRRVTuFsDqrHh-146" value="" style="endArrow=none;html=1;rounded=0;fillColor=#ffe6cc;strokeColor=#d79b00;" parent="-CrN_SrDRRVTuFsDqrHh-95" edge="1">
          <mxGeometry width="50" height="50" relative="1" as="geometry">
            <mxPoint y="4.0000000000000355" as="sourcePoint" />
            <mxPoint x="90" y="4.0000000000000355" as="targetPoint" />
          </mxGeometry>
        </mxCell>
        <mxCell id="-CrN_SrDRRVTuFsDqrHh-104" style="edgeStyle=orthogonalEdgeStyle;rounded=0;orthogonalLoop=1;jettySize=auto;html=1;exitX=1.129;exitY=0.346;exitDx=0;exitDy=0;entryX=-0.186;entryY=0.347;entryDx=0;entryDy=0;entryPerimeter=0;exitPerimeter=0;" parent="1" source="-CrN_SrDRRVTuFsDqrHh-97" target="-CrN_SrDRRVTuFsDqrHh-90" edge="1">
          <mxGeometry relative="1" as="geometry" />
        </mxCell>
        <mxCell id="-CrN_SrDRRVTuFsDqrHh-98" value="" style="group;fillColor=#f5f5f5;fontColor=#333333;strokeColor=#666666;" parent="1" vertex="1" connectable="0">
          <mxGeometry x="1320" y="1400" width="90" height="90" as="geometry" />
        </mxCell>
        <mxCell id="-CrN_SrDRRVTuFsDqrHh-99" value="WB&lt;br&gt;Src&lt;br&gt;Selector" style="rounded=0;whiteSpace=wrap;html=1;fillColor=#f5f5f5;fontColor=#333333;strokeColor=#666666;" parent="-CrN_SrDRRVTuFsDqrHh-98" vertex="1">
          <mxGeometry width="90" height="90" as="geometry" />
        </mxCell>
        <mxCell id="-CrN_SrDRRVTuFsDqrHh-100" style="edgeStyle=orthogonalEdgeStyle;rounded=0;orthogonalLoop=1;jettySize=auto;html=1;exitX=1;exitY=0.5;exitDx=0;exitDy=0;entryX=0.5;entryY=1;entryDx=0;entryDy=0;" parent="1" source="-CrN_SrDRRVTuFsDqrHh-99" target="-CrN_SrDRRVTuFsDqrHh-74" edge="1">
          <mxGeometry relative="1" as="geometry">
            <Array as="points">
              <mxPoint x="1430" y="1445" />
              <mxPoint x="1430" y="1710" />
              <mxPoint x="715" y="1710" />
            </Array>
          </mxGeometry>
        </mxCell>
        <mxCell id="-CrN_SrDRRVTuFsDqrHh-112" style="edgeStyle=orthogonalEdgeStyle;rounded=0;orthogonalLoop=1;jettySize=auto;html=1;exitX=1;exitY=0.5;exitDx=0;exitDy=0;entryX=0;entryY=0.5;entryDx=0;entryDy=0;fillColor=#d5e8d4;strokeColor=#82b366;" parent="1" source="-CrN_SrDRRVTuFsDqrHh-96" target="-CrN_SrDRRVTuFsDqrHh-99" edge="1">
          <mxGeometry relative="1" as="geometry" />
        </mxCell>
        <mxCell id="-CrN_SrDRRVTuFsDqrHh-113" style="edgeStyle=orthogonalEdgeStyle;rounded=0;orthogonalLoop=1;jettySize=auto;html=1;exitX=1;exitY=0.5;exitDx=0;exitDy=0;entryX=-0.543;entryY=0.341;entryDx=0;entryDy=0;entryPerimeter=0;fillColor=#d5e8d4;strokeColor=#82b366;" parent="1" source="-CrN_SrDRRVTuFsDqrHh-96" target="-CrN_SrDRRVTuFsDqrHh-82" edge="1">
          <mxGeometry relative="1" as="geometry">
            <Array as="points">
              <mxPoint x="1250" y="1445" />
              <mxPoint x="1250" y="1210" />
              <mxPoint x="770" y="1210" />
              <mxPoint x="770" y="1375" />
            </Array>
          </mxGeometry>
        </mxCell>
        <mxCell id="-CrN_SrDRRVTuFsDqrHh-126" value="&lt;font color=&quot;#97d077&quot;&gt;data&lt;/font&gt;" style="edgeLabel;html=1;align=center;verticalAlign=middle;resizable=0;points=[];" parent="-CrN_SrDRRVTuFsDqrHh-113" vertex="1" connectable="0">
          <mxGeometry x="-0.9605" relative="1" as="geometry">
            <mxPoint as="offset" />
          </mxGeometry>
        </mxCell>
        <mxCell id="-CrN_SrDRRVTuFsDqrHh-124" style="edgeStyle=orthogonalEdgeStyle;rounded=0;orthogonalLoop=1;jettySize=auto;html=1;exitX=0;exitY=0.5;exitDx=0;exitDy=0;entryX=0;entryY=0.75;entryDx=0;entryDy=0;" parent="1" source="-CrN_SrDRRVTuFsDqrHh-114" target="-CrN_SrDRRVTuFsDqrHh-60" edge="1">
          <mxGeometry relative="1" as="geometry" />
        </mxCell>
        <mxCell id="-CrN_SrDRRVTuFsDqrHh-114" value="" style="rounded=0;whiteSpace=wrap;html=1;" parent="1" vertex="1">
          <mxGeometry x="440" y="1570" width="5" height="160" as="geometry" />
        </mxCell>
        <mxCell id="-CrN_SrDRRVTuFsDqrHh-117" value="" style="group;fillColor=#ffe6cc;strokeColor=#d79b00;" parent="1" vertex="1" connectable="0">
          <mxGeometry x="1120" y="1560" width="90" height="90" as="geometry" />
        </mxCell>
        <mxCell id="-CrN_SrDRRVTuFsDqrHh-118" value="CSR&lt;br&gt;Unit" style="rounded=0;whiteSpace=wrap;html=1;fillColor=#ffe6cc;strokeColor=#d79b00;" parent="-CrN_SrDRRVTuFsDqrHh-117" vertex="1">
          <mxGeometry width="90" height="90" as="geometry" />
        </mxCell>
        <mxCell id="-CrN_SrDRRVTuFsDqrHh-145" value="" style="endArrow=none;html=1;rounded=0;fillColor=#ffe6cc;strokeColor=#d79b00;" parent="-CrN_SrDRRVTuFsDqrHh-117" edge="1">
          <mxGeometry width="50" height="50" relative="1" as="geometry">
            <mxPoint y="4" as="sourcePoint" />
            <mxPoint x="90" y="4" as="targetPoint" />
          </mxGeometry>
        </mxCell>
        <mxCell id="-CrN_SrDRRVTuFsDqrHh-120" style="edgeStyle=orthogonalEdgeStyle;rounded=0;orthogonalLoop=1;jettySize=auto;html=1;exitX=0.5;exitY=1;exitDx=0;exitDy=0;entryX=1;entryY=0.75;entryDx=0;entryDy=0;" parent="1" source="-CrN_SrDRRVTuFsDqrHh-118" target="-CrN_SrDRRVTuFsDqrHh-114" edge="1">
          <mxGeometry relative="1" as="geometry" />
        </mxCell>
        <mxCell id="-CrN_SrDRRVTuFsDqrHh-121" value="exception &amp;amp; interrupt" style="edgeLabel;html=1;align=center;verticalAlign=middle;resizable=0;points=[];" parent="-CrN_SrDRRVTuFsDqrHh-120" vertex="1" connectable="0">
          <mxGeometry x="0.7857" relative="1" as="geometry">
            <mxPoint as="offset" />
          </mxGeometry>
        </mxCell>
        <mxCell id="-CrN_SrDRRVTuFsDqrHh-134" value="" style="group" parent="1" vertex="1" connectable="0">
          <mxGeometry x="890" y="1240" width="10" height="440" as="geometry" />
        </mxCell>
        <mxCell id="-CrN_SrDRRVTuFsDqrHh-85" value="" style="rounded=0;whiteSpace=wrap;html=1;fillColor=#dae8fc;strokeColor=#6c8ebf;" parent="-CrN_SrDRRVTuFsDqrHh-134" vertex="1">
          <mxGeometry width="10" height="440" as="geometry" />
        </mxCell>
        <mxCell id="-CrN_SrDRRVTuFsDqrHh-130" value="" style="endArrow=none;html=1;rounded=0;" parent="-CrN_SrDRRVTuFsDqrHh-134" edge="1">
          <mxGeometry width="50" height="50" relative="1" as="geometry">
            <mxPoint y="3" as="sourcePoint" />
            <mxPoint x="10" y="3" as="targetPoint" />
          </mxGeometry>
        </mxCell>
        <mxCell id="-CrN_SrDRRVTuFsDqrHh-135" value="" style="group;fillColor=#dae8fc;strokeColor=#6c8ebf;" parent="1" vertex="1" connectable="0">
          <mxGeometry x="1090" y="1240" width="10" height="440" as="geometry" />
        </mxCell>
        <mxCell id="-CrN_SrDRRVTuFsDqrHh-97" value="" style="rounded=0;whiteSpace=wrap;html=1;fillColor=#dae8fc;strokeColor=#6c8ebf;" parent="-CrN_SrDRRVTuFsDqrHh-135" vertex="1">
          <mxGeometry width="10" height="440" as="geometry" />
        </mxCell>
        <mxCell id="-CrN_SrDRRVTuFsDqrHh-131" value="" style="endArrow=none;html=1;rounded=0;fillColor=#dae8fc;strokeColor=#6c8ebf;" parent="-CrN_SrDRRVTuFsDqrHh-135" edge="1">
          <mxGeometry width="50" height="50" relative="1" as="geometry">
            <mxPoint y="3" as="sourcePoint" />
            <mxPoint x="10" y="3" as="targetPoint" />
          </mxGeometry>
        </mxCell>
        <mxCell id="-CrN_SrDRRVTuFsDqrHh-136" value="" style="group;fillColor=#dae8fc;strokeColor=#6c8ebf;" parent="1" vertex="1" connectable="0">
          <mxGeometry x="1270" y="1240" width="10" height="440" as="geometry" />
        </mxCell>
        <mxCell id="-CrN_SrDRRVTuFsDqrHh-90" value="" style="rounded=0;whiteSpace=wrap;html=1;fillColor=#dae8fc;strokeColor=#6c8ebf;" parent="-CrN_SrDRRVTuFsDqrHh-136" vertex="1">
          <mxGeometry width="10" height="440" as="geometry" />
        </mxCell>
        <mxCell id="-CrN_SrDRRVTuFsDqrHh-133" value="" style="endArrow=none;html=1;rounded=0;fillColor=#dae8fc;strokeColor=#6c8ebf;" parent="-CrN_SrDRRVTuFsDqrHh-136" edge="1">
          <mxGeometry width="50" height="50" relative="1" as="geometry">
            <mxPoint y="3" as="sourcePoint" />
            <mxPoint x="10" y="3" as="targetPoint" />
          </mxGeometry>
        </mxCell>
        <mxCell id="-CrN_SrDRRVTuFsDqrHh-137" value="" style="group" parent="1" vertex="1" connectable="0">
          <mxGeometry x="330" y="1360" width="80" height="104" as="geometry" />
        </mxCell>
        <mxCell id="-CrN_SrDRRVTuFsDqrHh-67" value="" style="group;fillColor=#fff2cc;strokeColor=#d6b656;" parent="-CrN_SrDRRVTuFsDqrHh-137" vertex="1" connectable="0">
          <mxGeometry width="80" height="80" as="geometry" />
        </mxCell>
        <mxCell id="-CrN_SrDRRVTuFsDqrHh-51" value="" style="rounded=0;whiteSpace=wrap;html=1;fillColor=#fff2cc;strokeColor=#d6b656;" parent="-CrN_SrDRRVTuFsDqrHh-67" vertex="1">
          <mxGeometry width="16" height="80" as="geometry" />
        </mxCell>
        <mxCell id="-CrN_SrDRRVTuFsDqrHh-52" value="" style="rounded=0;whiteSpace=wrap;html=1;fillColor=#fff2cc;strokeColor=#d6b656;" parent="-CrN_SrDRRVTuFsDqrHh-67" vertex="1">
          <mxGeometry x="16" width="16" height="80" as="geometry" />
        </mxCell>
        <mxCell id="-CrN_SrDRRVTuFsDqrHh-53" value="" style="rounded=0;whiteSpace=wrap;html=1;fillColor=#fff2cc;strokeColor=#d6b656;" parent="-CrN_SrDRRVTuFsDqrHh-67" vertex="1">
          <mxGeometry x="32" width="16" height="80" as="geometry" />
        </mxCell>
        <mxCell id="-CrN_SrDRRVTuFsDqrHh-54" value="" style="rounded=0;whiteSpace=wrap;html=1;fillColor=#fff2cc;strokeColor=#d6b656;" parent="-CrN_SrDRRVTuFsDqrHh-67" vertex="1">
          <mxGeometry x="48" width="16" height="80" as="geometry" />
        </mxCell>
        <mxCell id="-CrN_SrDRRVTuFsDqrHh-55" value="" style="rounded=0;whiteSpace=wrap;html=1;fillColor=#fff2cc;strokeColor=#d6b656;" parent="-CrN_SrDRRVTuFsDqrHh-67" vertex="1">
          <mxGeometry x="64" width="16" height="80" as="geometry" />
        </mxCell>
        <mxCell id="-CrN_SrDRRVTuFsDqrHh-128" value="" style="endArrow=none;html=1;rounded=0;fillColor=#fff2cc;strokeColor=#d6b656;" parent="-CrN_SrDRRVTuFsDqrHh-67" edge="1">
          <mxGeometry width="50" height="50" relative="1" as="geometry">
            <mxPoint y="4" as="sourcePoint" />
            <mxPoint x="80" y="4" as="targetPoint" />
          </mxGeometry>
        </mxCell>
        <mxCell id="-CrN_SrDRRVTuFsDqrHh-129" value="FIFO" style="text;html=1;strokeColor=none;fillColor=none;align=center;verticalAlign=middle;whiteSpace=wrap;rounded=0;" parent="-CrN_SrDRRVTuFsDqrHh-137" vertex="1">
          <mxGeometry x="10" y="74" width="60" height="30" as="geometry" />
        </mxCell>
        <mxCell id="-CrN_SrDRRVTuFsDqrHh-139" value="" style="group;fillColor=#e1d5e7;strokeColor=#9673a6;" parent="1" vertex="1" connectable="0">
          <mxGeometry x="690" y="1360" width="50" height="80" as="geometry" />
        </mxCell>
        <mxCell id="-CrN_SrDRRVTuFsDqrHh-74" value="Regiser&lt;br&gt;File" style="rounded=0;whiteSpace=wrap;html=1;fillColor=#e1d5e7;strokeColor=#9673a6;" parent="-CrN_SrDRRVTuFsDqrHh-139" vertex="1">
          <mxGeometry width="50" height="80" as="geometry" />
        </mxCell>
        <mxCell id="-CrN_SrDRRVTuFsDqrHh-138" value="" style="endArrow=none;html=1;rounded=0;fillColor=#e1d5e7;strokeColor=#9673a6;" parent="-CrN_SrDRRVTuFsDqrHh-139" edge="1">
          <mxGeometry width="50" height="50" relative="1" as="geometry">
            <mxPoint y="4" as="sourcePoint" />
            <mxPoint x="50" y="4" as="targetPoint" />
          </mxGeometry>
        </mxCell>
        <mxCell id="-CrN_SrDRRVTuFsDqrHh-140" value="" style="endArrow=none;html=1;rounded=0;" parent="1" edge="1">
          <mxGeometry width="50" height="50" relative="1" as="geometry">
            <mxPoint x="143" y="1327" as="sourcePoint" />
            <mxPoint x="148" y="1327" as="targetPoint" />
          </mxGeometry>
        </mxCell>
      </root>
    </mxGraphModel>
  </diagram>
</mxfile>
